<svg id="visual" viewBox="0 0 1920 1080" width="1920" height="1080" xmlns="http://www.w3.org/2000/svg" xmlns:xlink="http://www.w3.org/1999/xlink" version="1.1"><rect x="0" y="0" width="1920" height="1080" fill="#0D0D0D"></rect><defs><linearGradient id="grad1_0" x1="43.8%" y1="100%" x2="100%" y2="0%"><stop offset="14.444444444444446%" stop-color="#0d0d0d" stop-opacity="1"></stop><stop offset="85.55555555555554%" stop-color="#0d0d0d" stop-opacity="1"></stop></linearGradient></defs><defs><linearGradient id="grad2_0" x1="0%" y1="100%" x2="56.3%" y2="0%"><stop offset="14.444444444444446%" stop-color="#0d0d0d" stop-opacity="1"></stop><stop offset="85.55555555555554%" stop-color="#0d0d0d" stop-opacity="1"></stop></linearGradient></defs><g transform="translate(1920, 1080)"><path d="M-432 0C-424 -81.3 -416 -162.5 -374.1 -216C-332.2 -269.5 -256.5 -295.1 -188.5 -326.5C-120.5 -357.9 -60.3 -394.9 0 -432L0 0Z" fill="#ffffff"></path></g><g transform="translate(0, 0)"><path d="M432 0C388.5 56.5 344.9 113 314.4 181.5C283.8 250 266.2 330.4 216 374.1C165.8 417.9 82.9 424.9 0 432L0 0Z" fill="#ffffff"></path></g></svg>