<svg id="visual" viewBox="0 0 900 600" width="900" height="600" xmlns="http://www.w3.org/2000/svg" xmlns:xlink="http://www.w3.org/1999/xlink" version="1.1"><rect x="0" y="0" width="900" height="600" fill="#0D0D0D"></rect><path d="M0 513L21.5 515C43 517 86 521 128.8 515C171.7 509 214.3 493 257.2 491.3C300 489.7 343 502.3 385.8 499.8C428.7 497.3 471.3 479.7 514.2 472C557 464.3 600 466.7 642.8 469.3C685.7 472 728.3 475 771.2 477.7C814 480.3 857 482.7 878.5 483.8L900 485L900 601L878.5 601C857 601 814 601 771.2 601C728.3 601 685.7 601 642.8 601C600 601 557 601 514.2 601C471.3 601 428.7 601 385.8 601C343 601 300 601 257.2 601C214.3 601 171.7 601 128.8 601C86 601 43 601 21.5 601L0 601Z" fill="#6CAEF5" stroke-linecap="round" stroke-linejoin="miter"></path></svg>